# xmcd
#
# Track frame offsets: 
#        150
#        9797
#        20655
#        28642
#        37712
#        51552
#        62325
#        73670
#        84392
#        101200
#        113550
#        124712
#        135442
#        151577
#        164227
#        175827
#        185955
#        196455
#        205332
#        217075
#        224887
#        234895
#        245535
#        254535
#        267670
#        278532
#        292962
#        303637
#        313810
#        325357
#
# Disc length: 4504 seconds
#
# Revision: 2
# Processed by: cddbd v1.5.2PL0 Copyright (c) Steve Scherf et al.
# Submitted via: ExactAudioCopy v1.0b3
#
DISCID=c411961e
DTITLE=スパイダース - スパイダース ROCKS
DYEAR=2003
DGENRE=JPop
TTITLE0=フリ・フリ’66
TTITLE1=ゴー・ゴー
TTITLE2=ヘイ・ボーイ
TTITLE3=ヒア・カム・スパイダース
TTITLE4=ブーン・ブーン
TTITLE5=ミスター・モンキー
TTITLE6=なればいい
TTITLE7=恋のドクター
TTITLE8=孤独の叫び
TTITLE9=夢のDC8
TTITLE10=バン・バン・バン
TTITLE11=暗闇にバラを捨てよう
TTITLE12=エンド・オブ・ラブ
TTITLE13=アラウンド・アンド・アラウンド
TTITLE14=コケコッコー
TTITLE15=デイ・トリッパー
TTITLE16=シンキング・オブ・ユー・ベイビー
TTITLE17=ロビー・ロビー
TTITLE18=キャロル〜ロール・オーヴァー・ベートーベン
TTITLE19=愛しておくれ
TTITLE20=メラ・メラ
TTITLE21=紅いリンゴ
TTITLE22=ハイヒール・スニーカーズ
TTITLE23=ハンキー・パンキー
TTITLE24=ミスター・タックス
TTITLE25=オー・プリティー・ウーマン
TTITLE26=ロックンロール・ボーイ
TTITLE27=のっぽのサリー
TTITLE28=S.P.I.
TTITLE29=ジョニー・B・グッド
EXTD=
EXTT0=
EXTT1=
EXTT2=
EXTT3=
EXTT4=
EXTT5=
EXTT6=
EXTT7=
EXTT8=
EXTT9=
EXTT10=
EXTT11=
EXTT12=
EXTT13=
EXTT14=
EXTT15=
EXTT16=
EXTT17=
EXTT18=
EXTT19=
EXTT20=
EXTT21=
EXTT22=
EXTT23=
EXTT24=
EXTT25=
EXTT26=
EXTT27=
EXTT28=
EXTT29=
PLAYORDER=
